# xmcd CD database file
#
# Track frame offsets:
#	150
#	24263
#	58253
#	89700
#	118030
#	145967
#	180092
#	204494
#	225626
#	260986
#
# Disc length: 3905 seconds
#
# Revision: 0
# Processed by: cddbd v1.5.2PL0 Copyright (c) Steve Scherf et al.
# Submitted via: CDex 1.81
#
DISCID=8d0f3f0a
DTITLE=Various Artist - Twelve Inch Eighties - When The Going Gets Tough [CD2)
DYEAR=2017
DGENRE=80's
TTITLE0=Alexander O'neal - Fake (Extended Version)
TTITLE1=Billy Ocean - When The Going Gets Tough (Extended Version)
TTITLE2=Donna Summer - Eyes (Extended Remix)
TTITLE3=Five Star - Stay Out Of My Life (12" Version)
TTITLE4=Miami Sound Machine - Bad Boy (Remix)
TTITLE5=Rick Astley - Whenever You Need Somebody (Lonely Hearts Mix)
TTITLE6=Cyndi Lauper - The Goonies 'r' Good Enough (Dance Remix)
TTITLE7=Jo Boxers - Just Got Lucky (12" Version)
TTITLE8=King - Won't You Hold My Hand Now (Heavy Times Mix)
TTITLE9=Aircut 100 - Favourite Shirts (Boy Meets Girl) (12" Version)
EXTD=YEAR: 2017
EXTT0=
EXTT1=
EXTT2=
EXTT3=
EXTT4=
EXTT5=
EXTT6=
EXTT7=
EXTT8=
EXTT9=
PLAYORDER=
